<?xml version="1.0" encoding="UTF-8" standalone="no"?>
<svg
   version="1"
   width="256"
   height="256"
   viewBox="0 0 256 256"
   id="svg4"
   sodipodi:docname="icon.svg"
   inkscape:version="1.4.2 (ebf0e940, 2025-05-08)"
   xmlns:inkscape="http://www.inkscape.org/namespaces/inkscape"
   xmlns:sodipodi="http://sodipodi.sourceforge.net/DTD/sodipodi-0.dtd"
   xmlns="http://www.w3.org/2000/svg"
   xmlns:svg="http://www.w3.org/2000/svg">
  <defs
     id="defs4" />
  <sodipodi:namedview
     id="namedview4"
     pagecolor="#ffffff"
     bordercolor="#000000"
     borderopacity="0.25"
     inkscape:showpageshadow="2"
     inkscape:pageopacity="0.0"
     inkscape:pagecheckerboard="0"
     inkscape:deskcolor="#d1d1d1"
     inkscape:zoom="3.3125"
     inkscape:cx="128"
     inkscape:cy="128.15094"
     inkscape:window-width="2256"
     inkscape:window-height="1186"
     inkscape:window-x="2810"
     inkscape:window-y="120"
     inkscape:window-maximized="0"
     inkscape:current-layer="svg4" />
  <path
     fill="#1c75bc"
     d="M0 0h256v256H0z"
     id="path1" />
  <path
     d="m 149.76297,176.53069 h -44.69652 l -7.858561,33.30557 H 53.985843 L 102.61064,52.966837 h 51.08061 l 48.6248,156.869423 h -44.69553 z m -7.61398,-32.09691 -2.70138,-10.8602 c -1.96363,-7.56125 -3.92927,-15.76672 -5.89291,-24.61741 -1.96564,-8.84576 -3.92928,-17.213773 -5.89491,-25.099109 h -0.98232 a 2871.9364,2822.3256 0 0 0 -5.52505,25.220269 c -1.88445,8.7709 -3.80699,16.935 -5.77162,24.49625 l -2.70138,10.8602 z"
     fill="none"
     stroke="#ffffff"
     stroke-width="6.95569"
     stroke-miterlimit="10"
     id="path2"
     style="display:inline;stroke:#ffb100;stroke-opacity:1" />
  <path
     d="m 139.91927,133.52121 2.66856,10.87045 h -29.12234 l 0.52501,-2.13563 -54.415185,54.16395 -4.111796,13.43598 h 42.712754 l 7.765947,-33.33705 h 44.16888 l 7.76694,33.33705 h 44.16888 L 165.62914,90.855789 136.56228,119.78746 a 657.99632,654.95839 0 0 0 3.35699,13.73375 z"
     fill="#ffffff"
     stroke="#ffffff"
     stroke-width="6.98357"
     stroke-miterlimit="10"
     id="path3" />
  <path
     fill="none"
     stroke="#fff"
     stroke-width="10"
     stroke-miterlimit="10"
     d="M23.902 234.5l208.196-209"
     id="path4"
     style="stroke:#ffb300;stroke-opacity:1" />
</svg>
